<svg xmlns="http://www.w3.org/2000/svg" viewBox="0 0 220 280" fill="none">
  <defs>
    <filter id="soft" x="-20%" y="-20%" width="140%" height="140%"><feGaussianBlur stdDeviation="0.4"/></filter>
  </defs>
  <path d="M122 28c43 5 68 40 68 83 0 27-9 47-30 63-17 13-26 29-26 50v8" stroke="#000" stroke-width="3" stroke-linecap="round" stroke-linejoin="round" pathLength="1">
    <animate attributeName="stroke-dasharray" values="0,1;1,0" dur="4.2s" repeatCount="indefinite"/>
  </path>
  <path d="M122 36c-26 3-45 22-45 49 0 18 8 31 21 41 11 8 18 19 18 33" stroke="#000" stroke-width="3" stroke-linecap="round" stroke-linejoin="round" pathLength="1">
    <animate attributeName="stroke-dasharray" values="0,1;1,0" dur="4.2s" begin="0.12s" repeatCount="indefinite"/>
  </path>
  <path d="M128 92c17 0 28 12 28 28 0 16-11 29-28 29-9 0-17-3-23-10" stroke="#000" stroke-width="3" stroke-linecap="round" stroke-linejoin="round" pathLength="1">
    <animate attributeName="stroke-dasharray" values="0,1;1,0" dur="4.2s" begin="0.24s" repeatCount="indefinite"/>
  </path>
  <path d="M97 150c0 21 9 34 25 43" stroke="#000" stroke-width="3" stroke-linecap="round" stroke-linejoin="round" pathLength="1">
    <animate attributeName="stroke-dasharray" values="0,1;1,0" dur="4.2s" begin="0.36s" repeatCount="indefinite"/>
  </path>
  <circle cx="137" cy="232" r="16" stroke="#000" stroke-width="3" fill="rgba(255,255,255,0.9)" filter="url(#soft)">
    <animate attributeName="opacity" values="0;0;1;1;0" dur="4.2s" repeatCount="indefinite"/>
    <animate attributeName="r" values="12;12;16;16;12" dur="4.2s" repeatCount="indefinite"/>
  </circle>
  <path d="M137 192v24" stroke="#000" stroke-width="3" stroke-linecap="round" pathLength="1">
    <animate attributeName="stroke-dasharray" values="0,1;1,0" dur="4.2s" begin="0.48s" repeatCount="indefinite"/>
  </path>
</svg>