<svg width="320" height="320" viewBox="0 0 320 320" fill="none" xmlns="http://www.w3.org/2000/svg">
  <style>
    .line{stroke:#111;stroke-width:3;stroke-linecap:round;stroke-linejoin:round;fill:none}
    .draw1{stroke-dasharray:420;stroke-dashoffset:420;animation:draw1 6s ease-in-out infinite}
    .draw2{stroke-dasharray:160;stroke-dashoffset:160;animation:draw2 6s ease-in-out infinite}
    .pearl{fill:#f0ece3;stroke:#111;stroke-width:3;opacity:0;transform-origin:182px 225px;animation:pearl 6s ease-in-out infinite}
    @keyframes draw1{0%{stroke-dashoffset:420;opacity:0}10%{opacity:1}40%,70%{stroke-dashoffset:0;opacity:1}100%{stroke-dashoffset:-420;opacity:0}}
    @keyframes draw2{0%,18%{stroke-dashoffset:160;opacity:0}30%,70%{stroke-dashoffset:0;opacity:1}100%{stroke-dashoffset:-160;opacity:0}}
    @keyframes pearl{0%,28%{opacity:0;transform:scale(.3)}38%,70%{opacity:1;transform:scale(1)}100%{opacity:0;transform:scale(.3)}}
  </style>
  <path class="line draw1" d="M188 38C161 39 139 56 130 84C121 112 127 153 151 171C166 183 186 183 199 171C212 158 217 135 215 114C212 86 197 67 175 62C158 59 145 68 139 83C132 100 134 124 147 137C156 146 169 148 180 144C194 139 202 124 201 109C199 90 188 78 173 75"/>
  <path class="line draw2" d="M182 184C174 200 171 216 177 228C180 234 187 239 196 238"/>
  <circle class="pearl" cx="182" cy="225" r="15"/>
</svg>
