<svg xmlns="http://www.w3.org/2000/svg" viewBox="0 0 2048 2048" fill="none" aria-label="OEVER.ART logo">
  <path d="M 1518 1643 L 1518 1670 L 1563 1671 L 1564 1673 L 1564 1784 L 1596 1784 L 1597 1670 L 1642 1670 L 1642 1643 Z M 1267 1644 L 1266 1646 L 1265 1648 L 1265 1650 L 1261 1657 L 1258 1666 L 1253 1675 L 1250 1684 L 1246 1693 L 1223 1744 L 1211 1770 L 1204 1783 L 1204 1785 L 1239 1784 L 1239 1782 L 1244 1773 L 1249 1761 L 1251 1755 L 1317 1755 L 1319 1757 L 1320 1760 L 1324 1770 L 1330 1782 L 1331 1784 L 1368 1785 L 1367 1783 L 1365 1779 L 1359 1766 L 1358 1764 L 1356 1762 L 1353 1756 L 1347 1743 L 1340 1728 L 1329 1704 L 1324 1693 L 1316 1673 L 1306 1653 L 1303 1646 L 1302 1643 Z M 1284 1677 L 1286 1680 L 1291 1690 L 1295 1699 L 1306 1724 L 1308 1729 L 1262 1729 L 1263 1726 L 1265 1721 L 1270 1709 L 1281 1685 L 1282 1680 L 1283 1679 Z M 1012 1643 L 1012 1785 L 1045 1785 L 1046 1744 L 1074 1744 L 1077 1747 L 1082 1754 L 1097 1778 L 1100 1781 L 1101 1784 L 1139 1785 L 1138 1783 L 1136 1780 L 1128 1768 L 1125 1765 L 1108 1740 L 1108 1738 L 1110 1736 L 1113 1735 L 1117 1732 L 1121 1729 L 1125 1725 L 1128 1721 L 1130 1718 L 1133 1712 L 1134 1709 L 1135 1704 L 1135 1686 L 1134 1681 L 1133 1677 L 1132 1674 L 1129 1668 L 1126 1664 L 1116 1654 L 1113 1652 L 1110 1650 L 1104 1647 L 1101 1646 L 1097 1645 L 1091 1644 L 1082 1643 Z M 1045 1670 L 1081 1670 L 1085 1671 L 1088 1672 L 1090 1673 L 1093 1675 L 1098 1680 L 1100 1683 L 1101 1685 L 1102 1688 L 1102 1698 L 1101 1701 L 1098 1707 L 1095 1711 L 1094 1712 L 1089 1715 L 1085 1716 L 1082 1717 L 1076 1718 L 1045 1717 L 1044 1675 Z M 874 1643 L 875 1785 L 985 1785 L 985 1758 L 907 1757 L 907 1730 L 908 1727 L 910 1725 L 974 1725 L 974 1700 L 907 1699 L 908 1670 L 983 1670 L 983 1643 Z M 705 1643 L 706 1647 L 708 1652 L 712 1662 L 717 1673 L 726 1691 L 730 1700 L 732 1707 L 739 1721 L 744 1735 L 748 1742 L 750 1749 L 757 1765 L 761 1774 L 766 1784 L 800 1783 L 801 1781 L 801 1779 L 805 1772 L 807 1765 L 815 1749 L 821 1733 L 829 1717 L 831 1710 L 859 1648 L 861 1643 L 827 1643 L 826 1645 L 825 1647 L 821 1656 L 818 1665 L 810 1681 L 808 1688 L 803 1697 L 786 1737 L 785 1741 L 783 1743 L 782 1741 L 781 1740 L 777 1731 L 775 1724 L 771 1717 L 769 1710 L 765 1703 L 763 1696 L 759 1689 L 748 1663 L 743 1651 L 741 1646 L 740 1643 Z M 586 1643 L 586 1785 L 681 1785 L 682 1784 L 697 1784 L 697 1758 L 618 1757 L 618 1731 L 619 1727 L 621 1725 L 685 1725 L 685 1700 L 618 1699 L 619 1670 L 694 1670 L 694 1643 Z M 1414 1642 L 1383 1643 L 1384 1785 L 1416 1784 L 1417 1744 L 1445 1744 L 1447 1746 L 1447 1747 L 1450 1750 L 1455 1757 L 1462 1767 L 1470 1780 L 1472 1783 L 1474 1785 L 1480 1785 L 1503 1785 L 1510 1785 L 1508 1781 L 1506 1778 L 1498 1768 L 1497 1765 L 1490 1755 L 1482 1745 L 1479 1737 L 1485 1734 L 1488 1732 L 1497 1723 L 1500 1719 L 1504 1711 L 1505 1708 L 1506 1705 L 1507 1700 L 1507 1686 L 1506 1681 L 1505 1678 L 1504 1675 L 1500 1667 L 1497 1663 L 1489 1655 L 1486 1653 L 1481 1650 L 1476 1648 L 1473 1647 L 1470 1646 L 1466 1645 L 1460 1644 L 1452 1643 L 1431 1642 Z M 1427 1669 L 1444 1669 L 1452 1670 L 1456 1671 L 1459 1672 L 1461 1673 L 1463 1674 L 1466 1677 L 1467 1677 L 1469 1679 L 1471 1682 L 1472 1684 L 1473 1688 L 1473 1700 L 1470 1706 L 1467 1710 L 1466 1711 L 1465 1711 L 1463 1713 L 1461 1714 L 1459 1715 L 1456 1716 L 1453 1717 L 1448 1718 L 1417 1718 L 1415 1716 L 1415 1689 L 1417 1670 Z M 474 1638 L 468 1639 L 464 1640 L 460 1641 L 457 1642 L 452 1644 L 446 1647 L 441 1650 L 438 1652 L 433 1656 L 425 1664 L 422 1668 L 420 1671 L 418 1674 L 415 1679 L 414 1681 L 412 1686 L 409 1695 L 408 1700 L 407 1706 L 407 1722 L 408 1728 L 409 1732 L 410 1736 L 411 1739 L 412 1742 L 418 1754 L 420 1757 L 422 1760 L 428 1767 L 436 1774 L 440 1777 L 443 1779 L 455 1785 L 458 1786 L 461 1787 L 465 1788 L 469 1789 L 476 1790 L 490 1790 L 497 1789 L 501 1788 L 505 1787 L 508 1786 L 511 1785 L 523 1779 L 526 1777 L 529 1775 L 534 1771 L 540 1765 L 544 1760 L 546 1757 L 548 1754 L 551 1749 L 552 1747 L 553 1745 L 557 1733 L 558 1729 L 559 1723 L 559 1705 L 558 1699 L 557 1695 L 555 1688 L 553 1683 L 550 1677 L 547 1672 L 545 1669 L 541 1664 L 533 1656 L 528 1652 L 525 1650 L 520 1647 L 514 1644 L 509 1642 L 506 1641 L 502 1640 L 498 1639 L 493 1638 Z M 476 1669 L 490 1669 L 494 1670 L 498 1671 L 506 1675 L 509 1677 L 513 1680 L 516 1683 L 516 1684 L 520 1688 L 522 1691 L 525 1697 L 526 1700 L 527 1703 L 528 1709 L 528 1719 L 527 1724 L 526 1728 L 524 1732 L 521 1738 L 518 1742 L 511 1749 L 507 1752 L 499 1756 L 496 1757 L 492 1758 L 486 1759 L 481 1759 L 480 1758 L 474 1758 L 470 1757 L 467 1756 L 459 1752 L 455 1749 L 447 1741 L 445 1738 L 442 1733 L 440 1728 L 439 1724 L 438 1719 L 438 1708 L 439 1703 L 440 1700 L 441 1697 L 444 1691 L 446 1688 L 451 1682 L 453 1680 L 454 1680 L 457 1677 L 460 1675 L 465 1672 L 468 1671 L 471 1670 Z M 1502 1417 L 1486 1433 L 1461 1456 L 1460 1456 L 1450 1467 L 1458 1476 L 1470 1488 L 1480 1499 L 1504 1527 L 1514 1537 L 1520 1542 L 1524 1545 L 1529 1548 L 1531 1549 L 1535 1550 L 1541 1551 L 1551 1551 L 1556 1550 L 1560 1549 L 1568 1545 L 1571 1543 L 1577 1537 L 1579 1534 L 1583 1526 L 1584 1523 L 1585 1518 L 1585 1507 L 1584 1503 L 1583 1500 L 1582 1497 L 1579 1491 L 1573 1482 L 1569 1477 L 1559 1466 L 1541 1448 L 1535 1441 L 1530 1434 L 1522 1425 L 1509 1412 Z M 529 1421 L 520 1432 L 509 1443 L 502 1452 L 493 1462 L 484 1471 L 474 1482 L 469 1489 L 467 1492 L 466 1494 L 464 1499 L 463 1502 L 462 1508 L 462 1515 L 463 1521 L 466 1530 L 467 1532 L 469 1535 L 478 1544 L 481 1546 L 483 1547 L 485 1548 L 488 1549 L 491 1550 L 495 1551 L 508 1551 L 513 1550 L 516 1549 L 519 1548 L 522 1546 L 526 1543 L 558 1511 L 568 1500 L 578 1489 L 585 1480 L 594 1471 L 597 1466 L 590 1459 L 576 1447 L 562 1434 L 541 1413 L 539 1412 Z M 625 1316 L 619 1322 L 599 1344 L 591 1354 L 571 1375 L 562 1385 L 562 1386 L 553 1395 L 553 1396 L 549 1400 L 579 1430 L 591 1441 L 600 1449 L 608 1455 L 611 1452 L 620 1442 L 627 1433 L 637 1423 L 644 1414 L 654 1403 L 663 1393 L 674 1381 L 696 1357 L 708 1345 L 709 1343 L 707 1342 L 703 1340 L 698 1338 L 690 1335 L 682 1332 L 679 1331 L 676 1331 L 673 1329 L 670 1329 L 667 1327 L 650 1322 L 643 1320 L 632 1317 L 628 1316 Z M 1261 1142 L 1253 1143 L 1237 1145 L 1229 1146 L 1216 1148 L 1198 1151 L 1193 1152 L 1184 1154 L 1175 1157 L 1172 1157 L 1180 1167 L 1195 1184 L 1221 1212 L 1236 1230 L 1246 1240 L 1253 1249 L 1263 1259 L 1297 1298 L 1343 1349 L 1354 1360 L 1403 1415 L 1415 1427 L 1423 1437 L 1438 1453 L 1440 1455 L 1446 1449 L 1447 1449 L 1457 1440 L 1470 1428 L 1498 1400 L 1496 1398 L 1496 1397 L 1487 1388 L 1487 1387 L 1469 1367 L 1460 1357 L 1449 1346 L 1441 1336 L 1431 1326 L 1423 1316 L 1413 1306 L 1405 1296 L 1359 1245 L 1348 1234 L 1341 1225 L 1331 1215 L 1322 1205 L 1309 1189 L 1302 1181 L 1287 1164 L 1275 1151 L 1269 1145 L 1265 1142 Z M 611 1082 L 612 1084 L 613 1087 L 615 1090 L 617 1093 L 621 1098 L 642 1119 L 649 1125 L 654 1129 L 658 1132 L 662 1135 L 669 1140 L 681 1148 L 689 1153 L 701 1160 L 708 1164 L 715 1168 L 724 1173 L 742 1182 L 751 1187 L 758 1191 L 770 1198 L 778 1203 L 789 1210 L 796 1215 L 803 1220 L 807 1223 L 812 1227 L 818 1232 L 829 1242 L 835 1248 L 845 1259 L 850 1265 L 853 1269 L 856 1273 L 862 1282 L 865 1287 L 868 1292 L 873 1301 L 874 1303 L 878 1312 L 880 1317 L 881 1320 L 882 1326 L 886 1335 L 886 1338 L 887 1341 L 889 1344 L 890 1348 L 890 1343 L 889 1342 L 889 1332 L 888 1324 L 887 1318 L 886 1313 L 885 1308 L 882 1296 L 880 1290 L 877 1281 L 874 1274 L 865 1256 L 860 1248 L 858 1245 L 853 1238 L 849 1233 L 844 1227 L 836 1219 L 836 1218 L 829 1211 L 817 1200 L 805 1191 L 793 1183 L 781 1176 L 773 1172 L 755 1163 L 742 1157 L 694 1137 L 683 1132 L 681 1131 L 679 1129 L 677 1128 L 673 1127 L 669 1125 L 658 1119 L 653 1116 L 648 1113 L 645 1111 L 642 1109 L 638 1105 L 635 1104 L 631 1101 L 626 1097 L 617 1089 L 614 1086 L 614 1085 Z M 720 962 L 717 964 L 707 963 L 705 963 L 704 964 L 701 964 L 692 969 L 687 971 L 684 972 L 681 973 L 677 974 L 671 974 L 677 979 L 688 987 L 692 989 L 698 992 L 701 993 L 705 994 L 711 994 L 714 993 L 716 992 L 718 991 L 721 988 L 723 985 L 727 977 L 731 972 L 728 968 L 722 962 Z M 717 865 L 716 867 L 714 871 L 713 874 L 712 879 L 712 888 L 713 893 L 714 897 L 715 900 L 717 905 L 719 910 L 724 919 L 728 929 L 721 934 L 716 936 L 713 938 L 710 940 L 707 943 L 707 945 L 714 945 L 722 943 L 728 940 L 731 938 L 734 935 L 735 933 L 736 931 L 736 925 L 735 922 L 734 919 L 733 917 L 732 915 L 728 909 L 724 901 L 722 896 L 721 893 L 720 890 L 719 884 L 719 873 L 718 867 Z M 617 694 L 608 695 L 601 696 L 595 697 L 586 699 L 582 700 L 578 701 L 569 704 L 564 706 L 557 709 L 546 715 L 541 718 L 534 723 L 529 727 L 523 732 L 508 747 L 503 753 L 500 757 L 497 761 L 495 764 L 493 767 L 490 773 L 486 780 L 484 785 L 480 795 L 479 798 L 478 801 L 476 808 L 473 820 L 469 840 L 466 862 L 463 877 L 459 893 L 457 899 L 454 908 L 452 913 L 448 922 L 447 924 L 442 933 L 437 939 L 434 944 L 431 949 L 427 957 L 424 964 L 422 969 L 418 981 L 414 997 L 413 1003 L 413 1009 L 412 1010 L 412 1016 L 412 1014 L 413 1013 L 413 1011 L 415 1008 L 416 1003 L 418 998 L 421 991 L 431 971 L 435 964 L 443 952 L 446 948 L 450 943 L 456 936 L 471 921 L 478 915 L 484 910 L 488 907 L 492 904 L 502 897 L 510 892 L 525 883 L 532 879 L 543 873 L 557 866 L 606 842 L 620 834 L 628 829 L 631 827 L 638 822 L 642 819 L 647 815 L 654 809 L 662 801 L 667 795 L 670 791 L 673 787 L 678 780 L 680 777 L 681 774 L 683 772 L 683 775 L 683 777 L 680 784 L 675 793 L 672 798 L 670 801 L 667 805 L 664 809 L 657 816 L 657 817 L 651 823 L 642 831 L 637 835 L 632 839 L 625 844 L 616 850 L 608 855 L 603 858 L 598 861 L 591 865 L 584 869 L 575 874 L 555 884 L 546 889 L 539 893 L 527 900 L 519 905 L 513 909 L 504 915 L 497 920 L 493 923 L 487 928 L 481 933 L 461 953 L 456 959 L 453 963 L 450 967 L 444 976 L 440 983 L 433 997 L 430 1004 L 428 1010 L 425 1019 L 421 1035 L 420 1040 L 419 1046 L 418 1054 L 418 1093 L 419 1101 L 420 1107 L 422 1116 L 423 1120 L 424 1124 L 428 1136 L 430 1141 L 432 1146 L 439 1160 L 442 1165 L 445 1170 L 447 1173 L 449 1176 L 452 1180 L 455 1184 L 460 1189 L 460 1190 L 462 1192 L 461 1189 L 458 1184 L 454 1174 L 452 1169 L 452 1166 L 449 1160 L 448 1157 L 446 1150 L 445 1146 L 444 1142 L 443 1137 L 442 1132 L 441 1126 L 440 1118 L 440 1087 L 441 1079 L 442 1073 L 443 1068 L 445 1059 L 446 1055 L 453 1034 L 458 1023 L 459 1021 L 465 1010 L 470 1002 L 476 993 L 485 981 L 490 975 L 508 957 L 513 956 L 509 960 L 505 966 L 498 974 L 491 984 L 486 992 L 481 1001 L 478 1007 L 473 1017 L 468 1029 L 466 1035 L 463 1044 L 461 1051 L 460 1055 L 460 1060 L 458 1065 L 457 1071 L 456 1078 L 455 1089 L 455 1113 L 456 1123 L 457 1130 L 460 1145 L 461 1149 L 463 1156 L 464 1159 L 466 1162 L 466 1165 L 468 1170 L 471 1177 L 478 1191 L 484 1201 L 491 1211 L 495 1216 L 499 1221 L 521 1243 L 526 1247 L 534 1253 L 538 1256 L 549 1263 L 554 1266 L 562 1270 L 576 1277 L 583 1280 L 596 1285 L 605 1288 L 620 1293 L 633 1297 L 653 1302 L 673 1308 L 703 1318 L 718 1324 L 729 1329 L 733 1331 L 739 1335 L 741 1335 L 746 1338 L 753 1342 L 763 1349 L 767 1352 L 772 1356 L 791 1375 L 796 1381 L 801 1388 L 803 1391 L 806 1396 L 813 1410 L 815 1415 L 817 1421 L 820 1430 L 821 1434 L 822 1439 L 823 1445 L 824 1455 L 824 1464 L 823 1474 L 822 1480 L 821 1485 L 820 1489 L 817 1498 L 815 1503 L 811 1511 L 808 1516 L 802 1525 L 797 1531 L 791 1537 L 794 1535 L 802 1531 L 811 1525 L 818 1520 L 823 1516 L 828 1512 L 842 1498 L 847 1492 L 850 1488 L 853 1484 L 855 1481 L 857 1478 L 860 1473 L 865 1464 L 866 1462 L 870 1453 L 872 1448 L 873 1445 L 876 1435 L 877 1431 L 878 1427 L 879 1422 L 880 1415 L 881 1406 L 881 1382 L 880 1373 L 879 1366 L 878 1361 L 877 1356 L 876 1352 L 874 1345 L 870 1333 L 868 1328 L 866 1323 L 857 1305 L 854 1300 L 851 1295 L 845 1286 L 842 1282 L 839 1278 L 835 1273 L 829 1266 L 814 1251 L 804 1242 L 798 1237 L 793 1233 L 789 1230 L 785 1227 L 775 1220 L 772 1218 L 761 1211 L 744 1201 L 735 1196 L 706 1181 L 699 1177 L 687 1170 L 682 1167 L 666 1157 L 656 1150 L 652 1147 L 648 1144 L 643 1140 L 638 1136 L 630 1129 L 612 1111 L 606 1104 L 601 1098 L 598 1094 L 590 1082 L 586 1075 L 585 1073 L 584 1071 L 579 1060 L 577 1054 L 573 1042 L 571 1033 L 570 1027 L 569 1021 L 568 1011 L 568 995 L 569 985 L 570 978 L 571 972 L 572 967 L 573 963 L 574 959 L 576 953 L 579 944 L 580 942 L 581 940 L 575 947 L 572 951 L 566 960 L 563 965 L 556 979 L 554 984 L 550 996 L 549 1000 L 548 1004 L 547 1009 L 546 1016 L 546 1047 L 547 1053 L 548 1058 L 549 1063 L 550 1067 L 552 1073 L 555 1082 L 557 1087 L 563 1099 L 566 1104 L 569 1109 L 571 1112 L 574 1116 L 577 1120 L 582 1126 L 600 1144 L 598 1145 L 595 1142 L 586 1136 L 575 1126 L 568 1119 L 562 1112 L 559 1108 L 556 1104 L 550 1095 L 544 1084 L 541 1077 L 539 1072 L 536 1063 L 535 1059 L 534 1055 L 533 1050 L 532 1044 L 531 1035 L 531 1018 L 532 1009 L 533 1003 L 534 998 L 535 994 L 536 990 L 540 978 L 542 973 L 551 955 L 556 947 L 561 940 L 565 935 L 570 929 L 587 912 L 594 906 L 600 901 L 605 897 L 610 893 L 614 890 L 618 888 L 622 884 L 642 870 L 651 863 L 656 859 L 662 854 L 682 834 L 687 828 L 690 824 L 698 812 L 705 798 L 707 793 L 708 790 L 709 787 L 710 783 L 711 778 L 712 773 L 712 768 L 714 762 L 716 764 L 716 770 L 724 778 L 727 782 L 730 786 L 732 789 L 734 792 L 738 799 L 742 807 L 744 812 L 748 824 L 749 828 L 750 832 L 751 838 L 752 844 L 753 857 L 753 861 L 752 869 L 750 876 L 750 892 L 751 897 L 754 906 L 755 912 L 755 928 L 754 934 L 751 946 L 748 957 L 745 966 L 740 981 L 736 992 L 733 999 L 730 1006 L 724 1018 L 722 1021 L 715 1028 L 713 1029 L 711 1030 L 708 1031 L 700 1032 L 697 1032 L 687 1031 L 682 1030 L 677 1029 L 670 1027 L 664 1025 L 655 1022 L 650 1020 L 645 1018 L 634 1013 L 632 1012 L 621 1006 L 612 1000 L 605 995 L 598 989 L 596 987 L 596 986 L 592 982 L 593 984 L 595 988 L 598 993 L 600 996 L 607 1005 L 617 1015 L 623 1020 L 627 1023 L 636 1029 L 641 1032 L 646 1035 L 659 1042 L 658 1047 L 656 1053 L 655 1059 L 654 1068 L 654 1083 L 655 1093 L 656 1099 L 657 1104 L 658 1105 L 658 1108 L 660 1108 L 665 1107 L 672 1105 L 685 1101 L 690 1099 L 695 1097 L 702 1094 L 711 1089 L 716 1086 L 720 1083 L 724 1080 L 731 1074 L 735 1070 L 741 1063 L 744 1059 L 750 1050 L 756 1039 L 759 1032 L 761 1026 L 764 1017 L 765 1013 L 766 1009 L 767 1004 L 768 999 L 768 994 L 770 987 L 771 989 L 772 990 L 772 1016 L 771 1023 L 770 1028 L 769 1032 L 766 1042 L 764 1046 L 758 1058 L 755 1063 L 753 1066 L 750 1070 L 746 1075 L 739 1083 L 729 1093 L 731 1092 L 734 1090 L 739 1088 L 751 1080 L 756 1076 L 771 1061 L 775 1056 L 781 1047 L 785 1040 L 788 1034 L 790 1029 L 793 1021 L 795 1014 L 797 1005 L 798 999 L 799 992 L 799 958 L 798 950 L 797 944 L 795 934 L 794 929 L 792 922 L 789 913 L 783 898 L 783 895 L 782 894 L 783 891 L 785 894 L 788 899 L 793 908 L 800 921 L 801 923 L 803 928 L 806 935 L 807 938 L 808 941 L 809 945 L 810 949 L 811 954 L 812 962 L 812 983 L 811 992 L 810 999 L 809 1005 L 808 1006 L 808 1011 L 807 1013 L 809 1010 L 812 1004 L 815 997 L 817 992 L 818 989 L 821 978 L 822 973 L 823 966 L 823 946 L 822 939 L 821 934 L 818 922 L 817 919 L 813 908 L 810 901 L 806 892 L 800 879 L 790 860 L 786 851 L 783 844 L 780 836 L 778 829 L 777 825 L 776 821 L 774 812 L 770 788 L 769 784 L 768 780 L 764 768 L 758 756 L 756 753 L 754 750 L 749 744 L 746 741 L 740 736 L 734 732 L 731 730 L 729 730 L 727 728 L 725 727 L 720 725 L 703 720 L 701 719 L 699 718 L 685 709 L 671 702 L 666 700 L 657 697 L 653 696 L 648 695 L 641 694 Z M 495 1141 L 496 1143 L 497 1144 L 497 1146 L 504 1159 L 509 1167 L 512 1171 L 518 1179 L 526 1188 L 534 1196 L 541 1202 L 546 1206 L 550 1209 L 557 1214 L 565 1219 L 570 1222 L 579 1227 L 596 1235 L 603 1238 L 616 1243 L 630 1248 L 639 1251 L 659 1257 L 684 1263 L 691 1265 L 701 1268 L 722 1275 L 737 1281 L 748 1286 L 762 1293 L 774 1300 L 783 1306 L 787 1309 L 791 1312 L 797 1317 L 816 1336 L 820 1341 L 823 1345 L 829 1354 L 832 1359 L 836 1367 L 839 1374 L 842 1382 L 843 1385 L 845 1392 L 846 1396 L 847 1401 L 848 1408 L 847 1421 L 845 1416 L 845 1411 L 843 1403 L 842 1399 L 838 1388 L 836 1383 L 830 1371 L 825 1363 L 823 1360 L 820 1356 L 817 1352 L 810 1344 L 809 1343 L 806 1340 L 797 1332 L 793 1329 L 789 1326 L 780 1320 L 772 1315 L 766 1312 L 748 1303 L 736 1298 L 731 1296 L 720 1292 L 693 1283 L 680 1279 L 670 1277 L 651 1271 L 624 1262 L 613 1258 L 608 1256 L 601 1253 L 594 1250 L 576 1241 L 571 1238 L 566 1235 L 563 1233 L 556 1228 L 552 1225 L 547 1221 L 540 1215 L 526 1201 L 521 1195 L 517 1190 L 514 1186 L 507 1175 L 504 1169 L 499 1159 L 497 1154 L 494 1145 Z M 1540 668 L 1537 674 L 1533 682 L 1529 689 L 1523 698 L 1520 702 L 1517 706 L 1512 712 L 1492 732 L 1486 737 L 1481 741 L 1474 746 L 1468 750 L 1459 756 L 1454 759 L 1447 763 L 1436 769 L 1418 778 L 1407 783 L 1391 790 L 1379 795 L 1350 806 L 1338 811 L 1315 821 L 1305 826 L 1285 836 L 1278 840 L 1273 843 L 1268 846 L 1259 852 L 1249 859 L 1235 870 L 1226 878 L 1203 901 L 1197 908 L 1192 914 L 1188 919 L 1183 926 L 1179 932 L 1173 941 L 1170 946 L 1166 953 L 1156 973 L 1152 982 L 1150 987 L 1147 995 L 1144 1004 L 1141 1014 L 1139 1021 L 1137 1030 L 1134 1045 L 1133 1051 L 1132 1057 L 1130 1072 L 1129 1087 L 1128 1094 L 1127 1096 L 1123 1101 L 1105 1124 L 1098 1134 L 1080 1161 L 1075 1169 L 1068 1181 L 1064 1188 L 1060 1195 L 1055 1205 L 1042 1233 L 1038 1240 L 1037 683 L 1010 682 L 1010 1548 L 1037 1548 L 1037 1330 L 1038 1325 L 1041 1312 L 1044 1301 L 1047 1291 L 1054 1270 L 1057 1262 L 1065 1242 L 1071 1229 L 1084 1203 L 1089 1194 L 1093 1187 L 1102 1172 L 1107 1164 L 1119 1146 L 1124 1139 L 1129 1132 L 1138 1120 L 1145 1111 L 1157 1096 L 1162 1090 L 1169 1082 L 1177 1073 L 1186 1063 L 1204 1044 L 1207 1041 L 1209 1039 L 1210 1038 L 1228 1021 L 1237 1013 L 1245 1006 L 1251 1001 L 1257 996 L 1272 984 L 1281 977 L 1290 970 L 1294 968 L 1298 964 L 1302 962 L 1306 958 L 1321 948 L 1336 936 L 1351 926 L 1363 917 L 1383 902 L 1392 895 L 1401 888 L 1406 884 L 1424 869 L 1434 860 L 1452 842 L 1461 832 L 1467 825 L 1473 818 L 1478 812 L 1481 807 L 1483 805 L 1484 807 L 1482 810 L 1481 813 L 1473 825 L 1468 832 L 1464 836 L 1462 840 L 1459 844 L 1455 849 L 1450 854 L 1447 859 L 1440 867 L 1406 901 L 1396 910 L 1389 916 L 1383 921 L 1377 926 L 1366 935 L 1347 950 L 1310 978 L 1295 990 L 1289 995 L 1283 1000 L 1276 1006 L 1268 1013 L 1260 1020 L 1247 1032 L 1245 1035 L 1204 1075 L 1193 1087 L 1186 1095 L 1179 1103 L 1174 1109 L 1169 1115 L 1165 1120 L 1158 1129 L 1150 1142 L 1148 1144 L 1150 1144 L 1151 1143 L 1156 1142 L 1157 1141 L 1169 1137 L 1180 1134 L 1189 1132 L 1194 1131 L 1200 1130 L 1213 1128 L 1228 1126 L 1245 1125 L 1252 1124 L 1258 1123 L 1264 1122 L 1275 1120 L 1280 1119 L 1285 1118 L 1298 1115 L 1302 1113 L 1306 1113 L 1313 1111 L 1326 1107 L 1329 1106 L 1332 1105 L 1340 1102 L 1345 1100 L 1350 1098 L 1357 1095 L 1364 1092 L 1376 1086 L 1387 1080 L 1392 1077 L 1397 1074 L 1403 1070 L 1412 1064 L 1416 1061 L 1420 1058 L 1425 1054 L 1430 1050 L 1440 1041 L 1455 1026 L 1464 1016 L 1469 1010 L 1473 1005 L 1476 1001 L 1479 997 L 1484 990 L 1490 981 L 1495 973 L 1502 961 L 1511 943 L 1515 934 L 1520 922 L 1524 911 L 1527 902 L 1532 886 L 1534 878 L 1539 858 L 1540 853 L 1542 842 L 1545 824 L 1546 816 L 1547 806 L 1548 796 L 1549 782 L 1549 726 L 1548 713 L 1547 702 L 1546 693 L 1545 686 L 1544 679 L 1543 673 L 1542 668 L 1541 666 Z M 1233 646 L 1230 649 L 1218 663 L 1197 685 L 1163 719 L 1139 744 L 1128 756 L 1118 767 L 1094 794 L 1086 803 L 1080 810 L 1075 816 L 1066 827 L 1061 833 L 1058 837 L 1057 840 L 1057 867 L 1060 863 L 1064 858 L 1067 853 L 1071 848 L 1076 842 L 1087 829 L 1100 814 L 1113 799 L 1120 791 L 1129 782 L 1136 773 L 1145 763 L 1155 752 L 1168 738 L 1203 704 L 1216 691 L 1224 684 L 1231 679 L 1238 675 L 1235 678 L 1235 679 L 1230 685 L 1223 693 L 1210 706 L 1202 715 L 1182 738 L 1170 753 L 1157 768 L 1150 776 L 1133 794 L 1126 803 L 1118 812 L 1101 831 L 1091 841 L 1069 867 L 1060 876 L 1058 879 L 1058 1033 L 1062 1038 L 1072 1048 L 1081 1059 L 1092 1071 L 1102 1082 L 1109 1089 L 1109 1082 L 1110 1081 L 1110 1072 L 1111 1064 L 1112 1056 L 1113 1049 L 1114 1043 L 1117 1028 L 1119 1019 L 1120 1015 L 1125 997 L 1127 991 L 1128 989 L 1125 985 L 1120 979 L 1115 973 L 1107 964 L 1097 954 L 1097 953 L 1087 943 L 1087 942 L 1080 935 L 1082 933 L 1082 932 L 1090 923 L 1101 912 L 1129 881 L 1148 860 L 1156 850 L 1166 840 L 1173 831 L 1182 822 L 1190 813 L 1197 805 L 1217 782 L 1223 775 L 1244 749 L 1274 715 L 1279 709 L 1284 703 L 1287 699 L 1287 696 L 1283 691 L 1258 666 L 1245 654 L 1238 648 L 1235 646 Z M 1407 464 L 1368 503 L 1362 509 L 1361 510 L 1336 537 L 1335 538 L 1284 588 L 1274 599 L 1267 607 L 1259 618 L 1242 635 L 1250 642 L 1257 647 L 1264 653 L 1276 664 L 1277 665 L 1281 669 L 1282 670 L 1292 682 L 1298 687 L 1301 684 L 1305 679 L 1309 673 L 1317 664 L 1330 651 L 1339 641 L 1345 634 L 1351 627 L 1356 621 L 1365 610 L 1374 599 L 1382 589 L 1389 579 L 1393 574 L 1398 569 L 1401 564 L 1413 549 L 1427 532 L 1447 508 L 1456 498 L 1455 496 L 1429 470 L 1424 466 L 1417 461 L 1413 459 Z M 1278 619 L 1280 620 L 1282 622 L 1287 629 L 1285 634 L 1285 637 L 1285 639 L 1296 650 L 1298 653 L 1299 655 L 1297 658 L 1294 655 L 1285 648 L 1281 646 L 1276 642 L 1270 636 L 1269 634 L 1269 629 L 1270 627 Z M 1411 480 L 1413 480 L 1415 483 L 1414 485 L 1412 488 L 1409 492 L 1405 497 L 1390 515 L 1377 530 L 1356 554 L 1348 563 L 1340 572 L 1323 591 L 1313 602 L 1303 613 L 1313 623 L 1316 627 L 1319 631 L 1321 635 L 1320 638 L 1314 632 L 1307 626 L 1302 623 L 1294 616 L 1293 615 L 1290 611 L 1289 611 L 1287 609 L 1287 607 L 1292 601 L 1304 588 L 1341 551 L 1361 529 L 1386 503 L 1387 502 L 1408 482 Z M 592 402 L 587 406 L 577 412 L 572 416 L 567 420 L 550 437 L 546 442 L 543 446 L 540 450 L 538 453 L 537 456 L 539 459 L 547 468 L 565 488 L 574 498 L 584 508 L 618 547 L 646 577 L 672 607 L 691 627 L 708 647 L 718 657 L 744 687 L 772 717 L 780 727 L 790 737 L 797 746 L 822 774 L 839 793 L 864 821 L 874 831 L 881 840 L 891 850 L 899 860 L 928 891 L 936 901 L 958 924 L 967 934 L 967 936 L 960 944 L 952 953 L 927 981 L 917 991 L 911 999 L 903 1008 L 880 1034 L 847 1071 L 838 1081 L 819 1102 L 808 1114 L 795 1127 L 786 1137 L 779 1145 L 779 1146 L 774 1151 L 777 1153 L 788 1158 L 797 1163 L 804 1167 L 816 1175 L 820 1178 L 824 1181 L 829 1185 L 835 1191 L 842 1196 L 849 1189 L 860 1177 L 867 1168 L 868 1167 L 869 1167 L 870 1166 L 878 1156 L 907 1125 L 915 1115 L 925 1105 L 932 1096 L 941 1086 L 950 1076 L 962 1064 L 969 1055 L 978 1046 L 984 1039 L 988 1034 L 989 1032 L 989 838 L 987 835 L 982 829 L 977 823 L 970 815 L 962 806 L 940 783 L 932 773 L 913 753 L 896 733 L 885 722 L 877 712 L 867 702 L 859 692 L 849 682 L 841 672 L 830 661 L 821 651 L 813 641 L 804 631 L 794 621 L 786 611 L 758 581 L 732 551 L 712 530 L 704 520 L 694 510 L 686 500 L 675 489 L 668 480 L 649 460 L 625 432 L 614 420 L 595 401 Z M 515 347 L 506 357 L 499 363 L 493 367 L 488 371 L 486 373 L 486 375 L 490 383 L 496 394 L 505 410 L 509 417 L 512 422 L 515 427 L 520 435 L 522 438 L 525 441 L 527 445 L 530 447 L 532 444 L 533 441 L 535 438 L 538 434 L 546 425 L 559 412 L 565 407 L 569 404 L 573 401 L 587 392 L 583 388 L 577 383 L 572 379 L 563 372 L 544 358 L 523 343 L 521 342 Z M 484 341 L 484 362 L 486 361 L 491 356 L 492 356 L 498 351 L 508 341 Z M 861 310 L 862 313 L 864 318 L 867 323 L 869 328 L 873 339 L 874 342 L 876 349 L 880 365 L 881 372 L 882 379 L 883 392 L 883 409 L 882 422 L 881 430 L 880 438 L 878 449 L 876 460 L 871 482 L 869 495 L 868 503 L 867 516 L 867 532 L 868 545 L 869 552 L 870 557 L 871 562 L 873 569 L 877 581 L 880 588 L 884 596 L 888 603 L 890 606 L 895 613 L 899 618 L 912 631 L 917 635 L 921 638 L 930 644 L 944 651 L 951 654 L 960 657 L 967 659 L 971 660 L 975 661 L 980 662 L 985 663 L 992 664 L 998 664 L 1000 663 L 999 660 L 997 657 L 993 652 L 988 647 L 986 644 L 983 639 L 974 621 L 971 614 L 968 605 L 966 598 L 965 594 L 964 589 L 963 584 L 962 575 L 962 543 L 963 533 L 964 527 L 965 521 L 968 506 L 969 502 L 971 495 L 972 492 L 973 489 L 976 481 L 978 476 L 980 471 L 984 462 L 993 444 L 997 437 L 1000 432 L 1005 424 L 1012 414 L 1009 410 L 1002 401 L 998 396 L 993 390 L 973 370 L 966 364 L 961 360 L 956 356 L 952 353 L 948 350 L 938 343 L 935 341 L 932 339 L 924 334 L 919 331 L 908 325 L 902 322 L 893 318 L 888 316 L 876 312 L 872 311 L 867 311 L 866 310 Z M 1184 310 L 1181 310 L 1177 311 L 1170 313 L 1156 318 L 1151 320 L 1142 324 L 1136 327 L 1126 332 L 1119 336 L 1114 339 L 1108 343 L 1099 349 L 1087 358 L 1080 364 L 1073 370 L 1053 390 L 1045 399 L 1040 405 L 1036 410 L 1032 415 L 1027 422 L 1023 428 L 1017 437 L 1014 442 L 1010 449 L 1000 469 L 996 478 L 993 486 L 989 497 L 987 504 L 983 520 L 982 525 L 981 531 L 980 539 L 979 550 L 979 570 L 980 580 L 981 586 L 982 592 L 983 596 L 984 600 L 986 607 L 989 615 L 991 620 L 995 629 L 998 632 L 1001 638 L 1003 641 L 1006 645 L 1009 649 L 1022 662 L 1026 665 L 1043 665 L 1054 664 L 1061 663 L 1067 662 L 1072 661 L 1077 660 L 1081 659 L 1088 657 L 1091 656 L 1099 653 L 1105 650 L 1115 645 L 1127 637 L 1132 633 L 1139 627 L 1143 623 L 1151 614 L 1154 610 L 1157 606 L 1160 601 L 1163 596 L 1167 588 L 1170 581 L 1174 569 L 1176 562 L 1177 557 L 1178 552 L 1179 545 L 1180 533 L 1180 514 L 1179 501 L 1178 493 L 1177 487 L 1176 481 L 1173 465 L 1167 439 L 1166 433 L 1165 426 L 1164 417 L 1164 386 L 1165 377 L 1166 371 L 1167 365 L 1168 360 L 1169 356 L 1170 352 L 1172 345 L 1175 336 L 1178 328 L 1180 323 L 1187 310 Z M 1084 266 L 1079 269 L 1060 278 L 1051 283 L 1044 287 L 1036 292 L 1033 294 L 1023 301 L 1018 305 L 1013 309 L 1005 316 L 984 337 L 975 347 L 975 349 L 993 366 L 1003 376 L 1011 385 L 1015 390 L 1019 397 L 1022 401 L 1024 399 L 1032 388 L 1038 381 L 1049 369 L 1050 368 L 1053 365 L 1054 364 L 1067 352 L 1073 347 L 1078 343 L 1082 340 L 1089 335 L 1098 329 L 1103 326 L 1108 323 L 1115 320 L 1114 318 L 1114 316 L 1112 311 L 1109 304 L 1100 286 L 1097 281 L 1094 276 L 1090 270 L 1086 266 Z M 1593 265 L 1592 268 L 1589 273 L 1584 281 L 1578 290 L 1569 302 L 1565 307 L 1545 327 L 1540 331 L 1531 337 L 1528 338 L 1524 339 L 1544 319 L 1547 315 L 1550 311 L 1552 308 L 1553 306 L 1551 308 L 1550 308 L 1539 316 L 1528 322 L 1522 325 L 1509 331 L 1495 336 L 1481 343 L 1471 349 L 1467 352 L 1463 355 L 1457 360 L 1452 365 L 1452 366 L 1446 372 L 1440 381 L 1437 386 L 1433 395 L 1431 400 L 1430 403 L 1429 406 L 1428 410 L 1427 414 L 1425 423 L 1424 431 L 1423 441 L 1424 451 L 1425 451 L 1428 453 L 1437 460 L 1442 464 L 1458 481 L 1460 483 L 1461 483 L 1464 486 L 1466 487 L 1472 487 L 1479 485 L 1489 482 L 1492 481 L 1507 475 L 1518 469 L 1526 464 L 1530 461 L 1534 458 L 1539 454 L 1551 442 L 1556 436 L 1559 432 L 1562 428 L 1567 420 L 1571 413 L 1573 409 L 1576 403 L 1579 396 L 1581 391 L 1587 373 L 1587 368 L 1585 371 L 1582 378 L 1580 381 L 1577 385 L 1573 390 L 1569 395 L 1559 405 L 1558 403 L 1561 400 L 1563 396 L 1569 389 L 1572 384 L 1578 372 L 1581 365 L 1585 354 L 1586 351 L 1587 348 L 1589 341 L 1592 328 L 1593 323 L 1594 317 L 1595 310 L 1596 299 L 1596 273 L 1595 272 L 1595 264 Z M 1534 413 L 1535 415 L 1534 417 L 1532 420 L 1526 427 L 1508 445 L 1503 449 L 1499 452 L 1487 460 L 1476 466 L 1469 468 L 1464 471 L 1461 470 L 1466 466 L 1473 463 L 1478 460 L 1483 457 L 1492 451 L 1499 446 L 1505 441 L 1511 436 Z M 1520 395 L 1521 397 L 1520 399 L 1518 402 L 1516 405 L 1507 417 L 1503 422 L 1497 429 L 1479 447 L 1473 452 L 1469 455 L 1465 458 L 1459 462 L 1455 464 L 1454 462 L 1461 454 L 1462 453 L 1467 448 L 1468 447 L 1488 429 L 1499 418 L 1501 416 L 1514 401 Z M 1487 352 L 1488 354 L 1484 358 L 1471 370 L 1468 374 L 1465 378 L 1461 385 L 1454 399 L 1452 404 L 1449 412 L 1444 429 L 1440 440 L 1438 443 L 1435 445 L 1435 442 L 1436 436 L 1437 430 L 1438 425 L 1439 421 L 1440 417 L 1442 410 L 1443 407 L 1444 404 L 1446 399 L 1448 395 L 1451 389 L 1457 380 L 1461 375 L 1474 362 L 1479 358 L 1484 355 Z M 1523 350 L 1517 356 L 1507 364 L 1486 385 L 1482 390 L 1478 395 L 1470 407 L 1467 413 L 1461 425 L 1461 427 L 1459 430 L 1459 432 L 1465 424 L 1473 415 L 1483 405 L 1485 404 L 1486 406 L 1482 410 L 1479 414 L 1474 421 L 1467 431 L 1465 434 L 1456 449 L 1452 454 L 1451 455 L 1447 458 L 1445 458 L 1443 456 L 1442 453 L 1442 451 L 1443 450 L 1443 447 L 1447 435 L 1449 430 L 1451 425 L 1458 411 L 1461 406 L 1463 403 L 1465 400 L 1468 396 L 1472 391 L 1479 383 L 1486 376 L 1494 369 L 1500 364 L 1504 361 L 1508 358 L 1515 353 Z M 971 263 L 970 302 L 938 302 L 936 307 L 935 310 L 934 313 L 932 320 L 935 322 L 938 323 L 943 326 L 955 334 L 958 337 L 962 339 L 964 337 L 969 330 L 975 323 L 985 313 L 986 313 L 997 302 L 1003 297 L 1012 290 L 1016 288 L 1020 285 L 1018 283 L 1014 281 L 1009 278 L 989 268 L 984 266 L 979 264 L 976 263 Z " fill="currentColor" fill-rule="evenodd" clip-rule="evenodd"/>
</svg>